***************************************************************

[IMG]http://www.torrentforce.org/imghost/3/greyshadow_tfbanner.png[/IMG]

***************************************************************

[IMG]http://www.torrentforce.org/imghost/4/greyshadow_exorcismusppeeutrand.png[/IMG]

***************************************************************

FILM TITLE: Exorcismus (2010) La posesión de Emma Evans (original title)

***************************************************************

Genre: Horror    

Release: 29 December 2010 (Spain)

Director: Manuel Carballo

Writer: David Muñoz (screenplay)

Stars: Sophie Vavasseur, Stephen Billington and Richard Felix

Country: Spain

Language: English

Plot:
A family allows their young daughter's exorcism to be recorded secretly.

IMDB Rating: 5.2/10 from 949 users
 
http://www.imdb.com/title/tt1322306/ 

****************************************************************

[IMG]http://www.torrentforce.org/imghost/4/greyshadow_exorcismus1080px264mkv1.png[/IMG]
[IMG]http://www.torrentforce.org/imghost/4/greyshadow_exorcismus1080px264mkv2.png[/IMG]
[IMG]http://www.torrentforce.org/imghost/4/greyshadow_exorcismus1080px264mkv3.png[/IMG]

****************************************************************

[IMG]http://www.torrentforce.org/imghost/2/greyshadow_mediainfo.png[/IMG]
General
Unique ID                        : 232844879338010522856636593390510424579 (0xAF2C4AE4A68B5C83BA4F64FCDE5C4203)
Complete name                    : Exorcismus 2010 1080p BDRip x264 ac3 (mkv) [TFRG].mkv
Format                           : Matroska
Format version                   : Version 2
File size                        : 3.27 GiB
Duration                         : 1h 40mn
Overall bit rate                 : 4636 Kbps
Encoded date                     : UTC 2011-11-28 22:19:59
Writing application              : mkvmerge v4.9.1 ('Ich will') built on Jul 11 2011 23:53:15
Writing library                  : libebml v1.2.1 + libmatroska v1.1.1

Video
ID                               : 1
Format                           : AVC
Format/Info                      : Advanced Video Codec
Format profile                   : High@L4.1
Format settings, CABAC           : Yes
Format settings, ReFrames        : 5 frames
Codec ID                         : V_MPEG4/ISO/AVC
Duration                         : 1h 40mn
Bit rate                         : 4000 Kbps
Width                            : 1920 pixels
Height                           : 816 pixels
Display aspect ratio             : 2.35:1
Frame rate                       : 24.000 fps
Color space                      : YUV
Chroma subsampling               : 4:2:0
Bit depth                        : 8 bits
Scan type                        : Progressive
Bits/(Pixel*Frame)               : 0.106
Stream size                      : 2.75 GiB (84%)
Title                            : AVC MPEG4 Video
Writing library                  : x264 core 119 r2106 07efeb4
Language                         : English
Color primaries                  : BT.709-5, BT.1361, IEC 61966-2-4, SMPTE RP177
Transfer characteristics         : BT.709-5, BT.1361
Matrix coefficients              : BT.709-5, BT.1361, IEC 61966-2-4 709, SMPTE RP177

Audio
ID                               : 2
Format                           : AC-3
Format/Info                      : Audio Coding 3
Mode extension                   : CM (complete main)
Codec ID                         : A_AC3
Duration                         : 1h 40mn
Bit rate mode                    : Constant
Bit rate                         : 640 Kbps
Channel(s)                       : 6 channels
Channel positions                : Front: L C R, Side: L R, LFE
Sampling rate                    : 48.0 KHz
Bit depth                        : 16 bits
Compression mode                 : Lossy
Stream size                      : 462 MiB (14%)
Title                            : AC3 5.1 Audio
Language                         : English

****************************************************************

Video Source: Exorcismus 2011 1080p Blu-ray AVC DTS-HD MA 5.1-HDChina (20.2GB)

Thanks: (chdbits.org)

****************************************************************

My Exorcismus encode is available in 720p xvid / 720p x264 / 1080p xvid / 1080p x264

****************************************************************

I provide a small sample, so please download this to check your 
compatibility first if you are unsure.

****************************************************************

7th October 2011

I am re-introducing my warning to all downloaders, please please
please use a proxy or vpn service, it is the only secure way to
keep your own ip address from being seen during downloading or
uploading/seeding, this WILL stop isp letters, as for advice to 
which one then thats simple, vpntunnel.se server based in Sweden 
is the right one to use, I have cancelled my vpn and transfered 
to a Swedish one already !!! enough said. 

****************************************************************

A big thanks to all the sites out there who care and share and
who make it possible for you to download this torrent for free.

Greetz to Westy, Ripwyn, mustang, noir, Blackjesus, MXMG, The Stig 
and all the other outstanding members of our community of file 
sharers and a special mention to our friends at 1337x.

****************************************************************